<svg xmlns="http://www.w3.org/2000/svg" viewBox="0 0 68.53 51"><defs><style>.cls-1{fill:#ed1c24;}.cls-2{fill:#333;fill-rule:evenodd;}</style></defs><title>logoi</title><g id="Layer_2" data-name="Layer 2"><g id="Layer_1-2" data-name="Layer 1"><path class="cls-1" d="M25.5,0A25.48,25.48,0,0,0,3.25,13H5.72V37.72H3.11A25.5,25.5,0,1,0,25.5,0ZM19.56,37.15c-.3.13-.64.25-1,.38a8.46,8.46,0,0,1-1.25.31,7.18,7.18,0,0,1-1.41.13A4.6,4.6,0,0,1,13,37a3.35,3.35,0,0,1-1.22-2.86V22H9.3v-2.4h2.47V13.52h3.06v6.05H18.9V22H14.83V33.24a1.92,1.92,0,0,0,.66,1.46,2.23,2.23,0,0,0,1.39.45,4.4,4.4,0,0,0,1.65-.3,7.61,7.61,0,0,0,1-.46l.73,2.43ZM0,25.5A25.33,25.33,0,0,0,2.59,36.7V14.3A25.33,25.33,0,0,0,0,25.5Z"/><path class="cls-2" d="M22.78,28.06h0A9.52,9.52,0,0,1,32,20.19a9,9,0,0,1,4,.91,13.7,13.7,0,0,1,26.7,4.33,20,20,0,0,1-.34,3.77,11,11,0,0,1,6.16,9.7v.46c0,6-5,11.52-11.06,11.52H23.8c-6,0-11-5.48-11-11.52V38.9a11,11,0,0,1,9.93-10.84Z"/></g></g></svg>