<svg xmlns="http://www.w3.org/2000/svg" viewBox="0 0 124.16 37.15"><defs><style>.cls-1{fill:#ed1c24;}.cls-2{fill:#333;}</style></defs><title>logo</title><g id="Layer_2" data-name="Layer 2"><g id="Layer_1-2" data-name="Layer 1"><path class="cls-1" d="M105.59,0A18.57,18.57,0,0,0,89.38,9.5h1.8v18h-1.9A18.58,18.58,0,1,0,105.59,0Zm-4.33,27.06c-.22.1-.46.18-.75.28a5.52,5.52,0,0,1-.91.22,4.93,4.93,0,0,1-1,.1A3.36,3.36,0,0,1,96.48,27a2.44,2.44,0,0,1-.89-2.08V16h-1.8V14.26h1.8V9.85h2.23v4.41h3V16h-3v8.21a1.37,1.37,0,0,0,.48,1.07,1.58,1.58,0,0,0,1,.32,3.29,3.29,0,0,0,1.2-.21,5.36,5.36,0,0,0,.75-.34l.53,1.77C101.66,26.89,101.48,27,101.26,27.06ZM87,18.58a18.43,18.43,0,0,0,1.89,8.15V10.42A18.44,18.44,0,0,0,87,18.58Z"/><path class="cls-2" d="M12.06,14.76a3.49,3.49,0,0,0-.54-.38,9.9,9.9,0,0,0-1.14-.58,10.79,10.79,0,0,0-1.49-.53A6,6,0,0,0,7.27,13C5.78,13,5,13.54,5,14.54a1.21,1.21,0,0,0,.24.76,2.17,2.17,0,0,0,.71.54,6,6,0,0,0,1.18.44l1.64.46a22,22,0,0,1,2.33.77,6.25,6.25,0,0,1,1.76,1A4.29,4.29,0,0,1,14,20.06a5.26,5.26,0,0,1,.39,2.13,5.33,5.33,0,0,1-.57,2.57,4.74,4.74,0,0,1-1.51,1.69,6.25,6.25,0,0,1-2.15.94,11,11,0,0,1-2.51.29,14.15,14.15,0,0,1-2-.15,15.27,15.27,0,0,1-2-.44,17.37,17.37,0,0,1-1.91-.7A10,10,0,0,1,0,25.45l1.82-3.62a3.21,3.21,0,0,0,.66.48A9.71,9.71,0,0,0,3.86,23a12.75,12.75,0,0,0,1.84.63,7.51,7.51,0,0,0,2.05.28c1.47,0,2.2-.44,2.2-1.34a1.14,1.14,0,0,0-.33-.84,3.33,3.33,0,0,0-.91-.59,9.49,9.49,0,0,0-1.38-.49L5.6,20.16a15.37,15.37,0,0,1-2.16-.82,5.74,5.74,0,0,1-1.5-1A3.7,3.7,0,0,1,1.05,17,5.05,5.05,0,0,1,.76,15.2a5.69,5.69,0,0,1,.53-2.51,5.46,5.46,0,0,1,1.45-1.84A6.3,6.3,0,0,1,4.85,9.72,8.5,8.5,0,0,1,7.4,9.34a9.41,9.41,0,0,1,1.84.18A13.59,13.59,0,0,1,11,10a11,11,0,0,1,1.56.63c.48.24.92.47,1.33.71Z"/><path class="cls-2" d="M37.53,27.48H33.48V20A3,3,0,0,0,33,18.1a1.51,1.51,0,0,0-1.24-.6,2,2,0,0,0-.82.18,2.92,2.92,0,0,0-.78.49,4.21,4.21,0,0,0-1.11,1.69v7.62H25V20a3,3,0,0,0-.48-1.91,1.54,1.54,0,0,0-1.25-.6,2.47,2.47,0,0,0-1.58.65,3.76,3.76,0,0,0-1.13,1.71v7.62h-4V14.18h3.65v2.23a4.8,4.8,0,0,1,2-1.85,6.41,6.41,0,0,1,2.92-.63,4.86,4.86,0,0,1,1.46.2,3.68,3.68,0,0,1,1.08.56,3.15,3.15,0,0,1,.73.82,3.64,3.64,0,0,1,.41,1,5.24,5.24,0,0,1,2-1.91,5.8,5.8,0,0,1,2.83-.67,3.9,3.9,0,0,1,2,.47,3.31,3.31,0,0,1,1.2,1.21,4.64,4.64,0,0,1,.57,1.64A10.22,10.22,0,0,1,37.53,19Z"/><path class="cls-2" d="M44,27.73a5.27,5.27,0,0,1-1.84-.31,4.21,4.21,0,0,1-2.42-2.23,4.12,4.12,0,0,1-.35-1.69,4,4,0,0,1,.41-1.8A4.23,4.23,0,0,1,41,20.31a5.86,5.86,0,0,1,1.8-.91,7.58,7.58,0,0,1,2.31-.33,9.66,9.66,0,0,1,1.62.14,5,5,0,0,1,1.36.42V19c0-1.54-.88-2.31-2.65-2.31a6,6,0,0,0-2.08.37,10.29,10.29,0,0,0-2.08,1.1L40,15.65a10.85,10.85,0,0,1,2.74-1.29,10.19,10.19,0,0,1,3-.43,6.91,6.91,0,0,1,4.66,1.42A5.17,5.17,0,0,1,52.1,19.5v3.42a1.38,1.38,0,0,0,.19.85.92.92,0,0,0,.67.29v3.42a6.84,6.84,0,0,1-1,.16,7.59,7.59,0,0,1-.79,0,2.85,2.85,0,0,1-1.72-.44A2,2,0,0,1,48.75,26l-.07-.6a6,6,0,0,1-2.12,1.74A5.7,5.7,0,0,1,44,27.73Zm1.19-2.91a3.76,3.76,0,0,0,1.28-.23,2.86,2.86,0,0,0,1-.61A1.24,1.24,0,0,0,48,23V21.75a6.22,6.22,0,0,0-1.15-.31,6.08,6.08,0,0,0-1.15-.12,3.12,3.12,0,0,0-1.84.51,1.55,1.55,0,0,0-.72,1.32,1.5,1.5,0,0,0,.56,1.2A2.13,2.13,0,0,0,45.16,24.82Z"/><path class="cls-2" d="M60.28,27.73a10.72,10.72,0,0,1-3.35-.54,7.67,7.67,0,0,1-2.78-1.59l1.44-2.48A11.62,11.62,0,0,0,58,24.41a5.93,5.93,0,0,0,2.22.46,2.19,2.19,0,0,0,1.21-.28.89.89,0,0,0,.43-.81,1,1,0,0,0-.54-.85,8.77,8.77,0,0,0-1.91-.67c-.9-.25-1.66-.5-2.27-.73a6.4,6.4,0,0,1-1.51-.79,2.42,2.42,0,0,1-.83-1,3.12,3.12,0,0,1-.26-1.31A4.19,4.19,0,0,1,56,15.17a5.26,5.26,0,0,1,1.69-.91,6.53,6.53,0,0,1,2.11-.33,9.38,9.38,0,0,1,2.8.4,7,7,0,0,1,2.52,1.47l-1.57,2.43a11.17,11.17,0,0,0-2-1.14,4.72,4.72,0,0,0-1.72-.35,2.12,2.12,0,0,0-1.11.27.89.89,0,0,0-.46.84.92.92,0,0,0,.49.84,8.14,8.14,0,0,0,1.84.61,20.74,20.74,0,0,1,2.39.76,6.19,6.19,0,0,1,1.59.85A2.86,2.86,0,0,1,65.44,22a3.41,3.41,0,0,1,.28,1.45,3.81,3.81,0,0,1-1.47,3.14A6.25,6.25,0,0,1,60.28,27.73Z"/><path class="cls-2" d="M80.49,27.48h-4V20a2.92,2.92,0,0,0-.51-1.9,1.7,1.7,0,0,0-1.39-.61,2.13,2.13,0,0,0-.78.16,2.88,2.88,0,0,0-.81.49,4.6,4.6,0,0,0-.72.74,3.33,3.33,0,0,0-.51,1v7.62h-4V9h4v7.42a5.19,5.19,0,0,1,1.94-1.84,5.52,5.52,0,0,1,2.65-.64,4.35,4.35,0,0,1,2.16.47,3.4,3.4,0,0,1,1.27,1.19,4.56,4.56,0,0,1,.6,1.62A10.73,10.73,0,0,1,80.49,19Z"/></g></g></svg>