<?xml version="1.0" standalone="no"?>
<!DOCTYPE svg PUBLIC "-//W3C//DTD SVG 20010904//EN"
 "http://www.w3.org/TR/2001/REC-SVG-20010904/DTD/svg10.dtd">
<svg version="1.0" xmlns="http://www.w3.org/2000/svg"
 width="1104.000000pt" height="1104.000000pt" viewBox="0 0 1104.000000 1104.000000"
 preserveAspectRatio="xMidYMid meet">
<metadata>
Created by potrace 1.11, written by Peter Selinger 2001-2013
</metadata>
<g transform="translate(0.000000,1104.000000) scale(0.100000,-0.100000)"
fill="#000000" stroke="none">
<path d="M3848 9625 c-2 -2 -39 -7 -83 -10 -44 -4 -98 -9 -120 -11 -22 -2 -51
-5 -65 -7 -14 -3 -50 -8 -80 -11 -30 -4 -74 -12 -98 -17 -23 -5 -59 -12 -80
-15 -20 -3 -45 -7 -54 -10 -10 -3 -28 -7 -40 -10 -47 -8 -65 -13 -148 -34 -47
-12 -90 -23 -97 -24 -7 -1 -16 -5 -19 -9 -4 -4 -17 -7 -29 -7 -12 0 -25 -3
-29 -7 -3 -4 -12 -8 -19 -9 -30 -4 -133 -39 -138 -47 -3 -5 -8 -7 -10 -6 -4 3
-114 -33 -154 -51 -11 -5 -54 -23 -95 -40 -89 -38 -307 -144 -370 -180 -181
-106 -252 -149 -276 -169 -5 -4 -21 -14 -34 -21 -13 -7 -29 -17 -34 -22 -6 -5
-42 -32 -81 -59 -76 -55 -120 -88 -138 -104 -7 -6 -25 -21 -42 -34 -116 -89
-352 -314 -460 -437 -33 -37 -67 -75 -75 -84 -8 -8 -43 -51 -77 -95 -35 -44
-66 -84 -71 -90 -4 -5 -19 -26 -32 -45 -14 -19 -28 -37 -31 -40 -13 -10 -179
-269 -179 -279 0 -6 -4 -11 -9 -11 -5 0 -13 -10 -17 -22 -4 -13 -9 -25 -13
-28 -3 -3 -11 -14 -17 -25 -11 -20 -9 -20 183 -20 107 0 197 -4 200 -9 5 -8 8
-190 3 -211 -1 -5 -2 -14 -1 -20 3 -14 3 -1568 1 -1580 -1 -5 -2 -12 -1 -15 3
-7 3 -1573 1 -1585 -1 -5 -1 -14 0 -20 1 -9 2 -462 1 -522 l-1 -23 -205 0
c-133 0 -205 -4 -205 -10 0 -6 10 -27 23 -48 13 -20 27 -44 30 -52 4 -8 21
-35 37 -60 16 -25 36 -57 45 -72 25 -45 160 -237 194 -278 9 -10 23 -28 31
-40 8 -12 22 -30 30 -40 8 -10 33 -39 55 -66 109 -131 331 -358 450 -459 39
-33 72 -62 75 -65 3 -4 23 -19 45 -36 21 -16 47 -36 56 -44 33 -31 60 -50 68
-50 5 0 11 -4 13 -9 2 -7 240 -170 303 -208 22 -13 130 -75 185 -106 51 -29
248 -127 254 -127 7 0 112 -47 148 -66 14 -8 30 -14 36 -14 5 0 27 -8 48 -17
22 -9 41 -17 44 -18 3 -1 19 -5 35 -10 17 -4 35 -11 40 -15 8 -5 76 -28 110
-36 6 -1 29 -9 53 -18 23 -8 42 -13 42 -11 0 2 17 -3 37 -12 21 -8 47 -16 58
-18 11 -1 39 -8 63 -14 23 -7 47 -9 52 -6 5 3 11 1 14 -4 5 -7 30 -15 96 -27
8 -2 31 -6 50 -10 19 -3 44 -8 55 -9 11 -2 34 -6 50 -9 51 -9 99 -16 140 -21
22 -2 40 -4 40 -5 0 -1 14 -3 30 -5 17 -1 68 -6 115 -11 47 -5 209 -7 360 -6
268 3 2067 9 4245 15 594 1 1089 5 1100 9 11 3 43 9 70 13 28 5 52 9 55 10 3
1 23 5 45 10 115 23 345 118 469 193 37 23 70 42 72 42 2 0 12 7 21 14 10 8
43 33 73 55 53 40 118 94 190 163 20 18 68 71 109 118 104 122 111 131 111
141 0 5 5 9 10 9 6 0 10 4 10 9 0 6 15 32 33 58 58 87 167 300 167 329 0 8 5
14 12 14 6 0 9 3 5 6 -3 4 0 19 9 35 8 16 12 29 8 29 -4 0 -2 6 4 13 6 6 11
15 11 19 1 4 3 13 5 20 3 7 8 27 12 43 8 34 10 42 14 53 1 4 3 12 5 17 1 6 3
12 4 15 2 3 4 14 6 25 2 11 7 36 11 55 7 37 9 48 21 145 9 71 9 381 -1 445 -4
25 -9 59 -11 75 -6 48 -33 168 -44 198 -6 15 -9 27 -7 27 7 0 -72 201 -94 241
-11 20 -17 39 -13 43 3 3 1 6 -5 6 -7 0 -12 5 -12 11 0 33 -157 264 -249 367
-30 33 -58 66 -62 74 -5 7 -9 9 -9 4 0 -5 -9 3 -20 17 -12 15 -67 63 -123 107
-56 44 -107 85 -114 90 -7 5 -57 35 -113 66 l-101 57 6 50 c4 28 9 59 11 71 4
21 9 61 22 191 9 92 9 463 0 540 -10 84 -33 211 -54 298 -2 9 -6 25 -8 35 -9
36 -75 229 -95 275 -11 26 -21 49 -21 52 -1 6 -81 160 -108 207 -43 75 -83
136 -149 223 -80 106 -168 202 -269 296 -97 89 -281 229 -302 229 -6 0 -12 4
-14 9 -5 15 -179 106 -318 169 -43 19 -234 87 -255 91 -5 1 -28 6 -50 12 -42
12 -62 16 -110 24 -16 3 -37 8 -45 10 -8 2 -37 7 -65 10 -27 4 -61 9 -75 11
-19 3 -211 15 -265 16 -24 0 -215 -12 -260 -17 l-50 -5 -80 121 c-44 67 -87
129 -95 138 -9 9 -42 51 -74 94 -32 42 -62 77 -65 77 -4 0 -14 12 -23 28 -46
75 -354 380 -517 512 -24 19 -48 40 -55 45 -57 52 -421 303 -476 328 -8 4 -42
23 -75 42 -88 50 -404 205 -420 205 -3 0 -24 9 -48 19 -141 63 -495 173 -659
206 -16 3 -40 7 -55 10 -16 3 -35 8 -44 11 -9 2 -34 7 -55 9 -22 3 -65 10 -97
16 -67 12 -90 15 -280 35 -57 7 -603 14 -609 9z m-1535 -2174 l77 -1 0 -485
c0 -267 3 -486 8 -486 4 -1 149 -3 322 -4 173 -1 317 -3 320 -4 8 -2 7 -375
-2 -381 -4 -3 -149 -5 -323 -5 -174 0 -319 -3 -321 -6 -2 -4 -4 -390 -4 -858
l0 -851 -51 -78 c-75 -114 -182 -346 -205 -444 -2 -10 -6 -26 -8 -36 -2 -9 -9
-37 -16 -62 -11 -40 -17 -64 -19 -80 -2 -10 -94 98 -118 137 -32 55 -60 133
-69 192 -4 25 -8 505 -8 1066 l-1 1020 -192 0 c-105 0 -194 3 -198 7 -8 8 -10
366 -2 374 3 3 92 5 199 5 l193 0 0 481 c0 330 3 485 11 492 7 7 67 10 170 9
87 -1 194 -2 237 -2z"/>
<path d="M381 7248 c-68 -150 -81 -179 -81 -191 0 -7 -4 -17 -9 -22 -6 -8 -63
-154 -67 -175 0 -3 -4 -14 -8 -25 -21 -54 -27 -72 -30 -90 -2 -11 -11 -40 -19
-65 -15 -46 -36 -123 -41 -150 -1 -8 -8 -33 -14 -55 -6 -22 -13 -51 -16 -65
-2 -14 -9 -45 -14 -70 -6 -25 -13 -63 -16 -85 -4 -23 -8 -50 -10 -60 -3 -18
-20 -130 -31 -210 -26 -192 -27 -749 0 -920 2 -16 7 -52 10 -80 6 -53 12 -92
21 -140 3 -16 7 -43 10 -60 17 -102 33 -171 59 -272 15 -54 27 -102 29 -108
12 -49 38 -133 46 -147 6 -10 10 -23 10 -30 0 -7 16 -56 36 -108 20 -52 42
-111 50 -131 7 -20 27 -66 43 -103 17 -36 31 -73 31 -80 0 -8 3 -16 8 -18 4
-1 14 -19 23 -38 14 -31 16 113 16 1763 0 988 -2 1797 -4 1797 -2 0 -17 -28
-32 -62z"/>
</g>
</svg>
